<svg width="22" height="30" viewBox="0 0 22 30" fill="none" xmlns="http://www.w3.org/2000/svg">
<path d="M11.2675 1.16992H6.65619C4.10946 1.16992 2.04492 3.23446 2.04492 5.78119C2.04492 8.32793 4.10946 10.3925 6.65619 10.3925M11.2675 1.16992H15.8787C18.4255 1.16992 20.49 3.23446 20.49 5.78119C20.49 8.32793 18.4255 10.3925 15.8787 10.3925H11.2675M11.2675 1.16992V10.3925M11.2675 10.3925H6.65619M11.2675 10.3925V19.615M6.65619 10.3925C4.10946 10.3925 2.04492 12.457 2.04492 15.0037C2.04492 17.5505 4.10946 19.615 6.65619 19.615M11.2675 19.615H6.65619M11.2675 19.615V24.2263C11.2675 26.773 9.20293 28.8376 6.65619 28.8376C4.10946 28.8376 2.04492 26.773 2.04492 24.2263C2.04492 21.6795 4.10946 19.615 6.65619 19.615M20.49 15.1959C20.49 17.6365 18.5115 19.615 16.0709 19.615C13.6303 19.615 11.6517 17.6365 11.6517 15.1959C11.6517 12.7553 13.6303 10.7767 16.0709 10.7767C18.5115 10.7767 20.49 12.7553 20.49 15.1959Z" stroke="#F9FCFE" stroke-width="2.30564"/>
</svg>
