<svg width="27" height="22" viewBox="0 0 27 22" fill="none" xmlns="http://www.w3.org/2000/svg">
<path d="M13.9883 21.8743C11.9121 21.8743 10.0246 21.6191 8.32592 21.1088C6.62721 20.5985 5.15918 19.8715 3.92185 18.9277C2.6915 17.991 1.74427 16.8725 1.08017 15.5722C0.41606 14.265 0.0840068 12.8144 0.0840068 11.2206C0.0840068 9.58479 0.433537 8.09579 1.1326 6.7536C1.83865 5.40441 2.8383 4.24397 4.13156 3.27228C5.43181 2.30059 6.98023 1.55259 8.77682 1.0283C10.5804 0.497012 12.5762 0.231369 14.7643 0.231369C16.456 0.231369 17.9939 0.406134 19.3781 0.755664C20.7622 1.0982 21.9506 1.59104 22.9433 2.23418C23.9429 2.87731 24.7119 3.64628 25.2502 4.54107C25.7954 5.43587 26.0681 6.43203 26.0681 7.52955C26.0681 8.27056 25.9213 8.9067 25.6277 9.43799C25.334 9.96228 24.9531 10.4132 24.4847 10.7907C24.0233 11.1682 23.534 11.4932 23.0167 11.7659C22.4994 12.0315 22.0065 12.2762 21.5382 12.4999C21.0768 12.7236 20.6993 12.9508 20.4057 13.1815C20.1121 13.4052 19.9653 13.6603 19.9653 13.9469C19.9653 14.2545 20.0526 14.5306 20.2274 14.7753C20.4092 15.013 20.6119 15.2612 20.8356 15.5198C21.0663 15.7785 21.269 16.086 21.4438 16.4426C21.6255 16.7921 21.7164 17.236 21.7164 17.7743C21.7164 18.5852 21.3913 19.2982 20.7412 19.9134C20.0981 20.5286 19.1963 21.0074 18.0359 21.35C16.8824 21.6995 15.5332 21.8743 13.9883 21.8743ZM13.9883 19.6617C15.6521 19.6617 16.9838 19.4625 17.9834 19.064C18.9901 18.6656 19.4934 18.1343 19.4934 17.4702C19.4934 17.1486 19.4025 16.8655 19.2208 16.6208C19.046 16.3692 18.8433 16.1175 18.6126 15.8658C18.3819 15.6142 18.1757 15.3311 17.9939 15.0165C17.8192 14.7019 17.7318 14.3174 17.7318 13.863C17.7318 13.3317 17.8786 12.8878 18.1722 12.5313C18.4658 12.1748 18.8468 11.8637 19.3151 11.5981C19.7835 11.3324 20.2763 11.0808 20.7937 10.8431C21.3179 10.5984 21.8108 10.3328 22.2722 10.0462C22.7405 9.75955 23.1215 9.41701 23.4151 9.01855C23.7087 8.6131 23.8555 8.11676 23.8555 7.52955C23.8555 6.51592 23.478 5.62811 22.7231 4.86614C21.9751 4.09717 20.9195 3.49947 19.5563 3.07305C18.1932 2.64662 16.5958 2.43341 14.7643 2.43341C12.8838 2.43341 11.1781 2.64313 9.64714 3.06256C8.1162 3.47501 6.80197 4.06921 5.70445 4.84516C4.60692 5.62112 3.76106 6.54737 3.16686 7.62393C2.57965 8.70048 2.28605 9.89937 2.28605 11.2206C2.28605 12.4859 2.56217 13.6358 3.11443 14.6704C3.67368 15.7051 4.46711 16.5964 5.49473 17.3444C6.52235 18.0854 7.75269 18.6551 9.18577 19.0536C10.6258 19.459 12.2267 19.6617 13.9883 19.6617ZM13.0865 17.2605C12.5482 17.2605 12.0554 17.1276 11.608 16.862C11.1606 16.5964 10.8006 16.2398 10.528 15.7924C10.2623 15.3381 10.1295 14.8382 10.1295 14.293C10.1295 13.7547 10.2623 13.2618 10.528 12.8144C10.8006 12.367 11.1606 12.0105 11.608 11.7449C12.0554 11.4723 12.5482 11.3359 13.0865 11.3359C13.6318 11.3359 14.1281 11.4723 14.5755 11.7449C15.0229 12.0105 15.3794 12.367 15.6451 12.8144C15.9177 13.2618 16.054 13.7547 16.054 14.293C16.054 14.8522 15.9212 15.3555 15.6556 15.8029C15.3969 16.2503 15.0404 16.6068 14.586 16.8725C14.1386 17.1311 13.6388 17.2605 13.0865 17.2605ZM13.0865 15.8868C13.3871 15.8868 13.6563 15.8169 13.8939 15.6771C14.1386 15.5373 14.3308 15.345 14.4707 15.1004C14.6105 14.8557 14.6804 14.5866 14.6804 14.293C14.6804 13.9504 14.6035 13.6638 14.4497 13.4331C14.2959 13.2024 14.0967 13.0242 13.852 12.8983C13.6073 12.7725 13.3452 12.7131 13.0655 12.7201C12.7929 12.7201 12.5378 12.7865 12.3001 12.9193C12.0624 13.0451 11.8702 13.2234 11.7234 13.4541C11.5765 13.6848 11.5031 13.9644 11.5031 14.293C11.5031 14.5866 11.5731 14.8557 11.7129 15.1004C11.8597 15.345 12.0519 15.5373 12.2896 15.6771C12.5273 15.8169 12.7929 15.8868 13.0865 15.8868ZM5.79882 12.6362C5.33045 12.6362 4.925 12.4649 4.58246 12.1224C4.23992 11.7728 4.06865 11.3604 4.06865 10.885C4.06865 10.4027 4.23992 9.99374 4.58246 9.65819C4.925 9.31565 5.33045 9.14438 5.79882 9.14438C6.28117 9.14438 6.69012 9.31565 7.02567 9.65819C7.36122 9.99374 7.52899 10.4027 7.52899 10.885C7.52899 11.3604 7.36122 11.7728 7.02567 12.1224C6.69012 12.4649 6.28117 12.6362 5.79882 12.6362ZM9.57374 9.31216C8.96556 9.31216 8.44826 9.10244 8.02183 8.683C7.60239 8.26357 7.39268 7.74626 7.39268 7.13109C7.39268 6.53689 7.60239 6.03357 8.02183 5.62112C8.44826 5.20168 8.96556 4.99197 9.57374 4.99197C10.1749 4.99197 10.6852 5.20168 11.1047 5.62112C11.5311 6.03357 11.7443 6.53689 11.7443 7.13109C11.7443 7.74626 11.5311 8.26357 11.1047 8.683C10.6852 9.10244 10.1749 9.31216 9.57374 9.31216ZM14.8167 7.6449C14.3343 7.6449 13.9184 7.47363 13.5689 7.13109C13.2263 6.78855 13.0551 6.3761 13.0551 5.89375C13.0551 5.4114 13.2263 4.99896 13.5689 4.65642C13.9184 4.31388 14.3343 4.14261 14.8167 4.14261C15.299 4.14261 15.708 4.31388 16.0435 4.65642C16.3861 4.99197 16.5574 5.40441 16.5574 5.89375C16.5574 6.3761 16.3861 6.78855 16.0435 7.13109C15.708 7.47363 15.299 7.6449 14.8167 7.6449ZM19.5249 8.30551C19.1334 8.30551 18.7943 8.16919 18.5077 7.89656C18.2281 7.61694 18.0883 7.27789 18.0883 6.87943C18.0883 6.49495 18.2281 6.16289 18.5077 5.88327C18.7943 5.60364 19.1334 5.46383 19.5249 5.46383C19.9163 5.46383 20.2484 5.60364 20.521 5.88327C20.8006 6.16289 20.9405 6.49495 20.9405 6.87943C20.9405 7.27789 20.8006 7.61694 20.521 7.89656C20.2484 8.16919 19.9163 8.30551 19.5249 8.30551Z" fill="black"/>
</svg>
